HIERARCHY
ROOT newVegas:Hips
{
	OFFSET 0.000000 96.479958 0.000000
	CHANNELS 6 Xposition Yposition Zposition Xrotation Yrotation Zrotation
	JOINT newVegas:Pelvis
	{
		OFFSET 0.000000 0.000000 0.000000
		CHANNELS 3 Xrotation Yrotation Zrotation
		JOINT newVegas:LeftUpLeg
		{
			OFFSET 18.735201 -5.666702 -4.541200
			CHANNELS 3 Xrotation Yrotation Zrotation
			JOINT newVegas:LeftLeg
			{
				OFFSET -0.021200 -31.938179 0.493100
				CHANNELS 3 Xrotation Yrotation Zrotation
				JOINT newVegas:LeftFoot
				{
					OFFSET 0.021200 -31.938179 -4.336299
					CHANNELS 3 Xrotation Yrotation Zrotation
					JOINT newVegas:LeftToeBase
					{
						OFFSET 0.943001 -26.722000 15.023500
						CHANNELS 3 Xrotation Yrotation Zrotation
						End Site
						{
							OFFSET 0.000000 30.670183 0.000000
						}
					}
				}
				JOINT newVegas:Left_PantLeg
				{
					OFFSET 0.663870 -9.044666 -1.108900
					CHANNELS 3 Xrotation Yrotation Zrotation
					End Site
					{
						OFFSET 1.415995 20.635357 0.000000
					}
				}
			}
		}
		JOINT newVegas:RightUpLeg
		{
			OFFSET -18.735201 -5.666702 -4.541200
			CHANNELS 3 Xrotation Yrotation Zrotation
			JOINT newVegas:RightLeg
			{
				OFFSET 0.018946 -31.938133 0.493100
				CHANNELS 3 Xrotation Yrotation Zrotation
				JOINT newVegas:RightFoot
				{
					OFFSET -0.018946 -31.938126 -4.336299
					CHANNELS 3 Xrotation Yrotation Zrotation
					JOINT newVegas:RightToeBase
					{
						OFFSET -0.943001 -26.722004 15.023500
						CHANNELS 3 Xrotation Yrotation Zrotation
						End Site
						{
							OFFSET 0.000000 30.670187 0.000000
						}
					}
				}
				JOINT newVegas:Right_PantLeg
				{
					OFFSET -0.661674 -9.044716 -1.108900
					CHANNELS 3 Xrotation Yrotation Zrotation
					End Site
					{
						OFFSET -1.415958 20.635269 0.000000
					}
				}
			}
		}
	}
	JOINT newVegas:Spine
	{
		OFFSET 0.000000 10.199997 -0.299500
		CHANNELS 3 Xrotation Yrotation Zrotation
		JOINT newVegas:Spine1
		{
			OFFSET 0.000000 11.900002 -1.516600
			CHANNELS 3 Xrotation Yrotation Zrotation
			JOINT newVegas:Spine2
			{
				OFFSET 0.000000 13.600006 -2.842500
				CHANNELS 3 Xrotation Yrotation Zrotation
				JOINT newVegas:Neck
				{
					OFFSET 0.000000 9.624100 -2.890100
					CHANNELS 3 Xrotation Yrotation Zrotation
					JOINT newVegas:Head
					{
						OFFSET 0.000000 14.068802 -1.351900
						CHANNELS 3 Xrotation Yrotation Zrotation
						JOINT newVegas:Hair_Back
						{
							OFFSET 0.000000 3.231903 -17.524799
							CHANNELS 3 Xrotation Yrotation Zrotation
							End Site
							{
								OFFSET 0.000000 19.849884 0.000000
							}
						}
						JOINT newVegas:Hair_Front
						{
							OFFSET 0.000000 31.260406 4.573800
							CHANNELS 3 Xrotation Yrotation Zrotation
							JOINT newVegas:Hair_Front1
							{
								OFFSET 0.000000 2.284103 11.993300
								CHANNELS 3 Xrotation Yrotation Zrotation
								JOINT newVegas:Hair_Front2
								{
									OFFSET 0.000000 2.284103 11.993300
									CHANNELS 3 Xrotation Yrotation Zrotation
									End Site
									{
										OFFSET 0.000000 12.208862 0.000000
									}
								}
							}
						}
						JOINT newVegas:Jowel
						{
							OFFSET 0.000000 -7.458206 6.864100
							CHANNELS 3 Xrotation Yrotation Zrotation
							End Site
							{
								OFFSET 0.000000 19.849884 0.000000
							}
						}
					}
				}
				JOINT newVegas:LeftShoulder
				{
					OFFSET 15.263000 10.923401 -0.547700
					CHANNELS 3 Xrotation Yrotation Zrotation
					JOINT newVegas:LeftArm
					{
						OFFSET 25.438599 -2.830597 -13.032500
						CHANNELS 3 Xrotation Yrotation Zrotation
						JOINT newVegas:LeftForeArm
						{
							OFFSET 29.960503 0.000000 0.000000
							CHANNELS 3 Xrotation Yrotation Zrotation
							JOINT newVegas:LeftHand
							{
								OFFSET 27.849251 0.000000 0.000000
								CHANNELS 3 Xrotation Yrotation Zrotation
								JOINT newVegas:LeftHandThumb1
								{
									OFFSET 4.487587 -3.305161 6.305391
									CHANNELS 3 Xrotation Yrotation Zrotation
									JOINT newVegas:LeftHandThumb2
									{
										OFFSET 5.480453 -3.164139 3.164143
										CHANNELS 3 Xrotation Yrotation Zrotation
										JOINT newVegas:LeftHandThumb3
										{
											OFFSET 5.159721 -2.978973 2.978967
											CHANNELS 3 Xrotation Yrotation Zrotation
											End Site
											{
												OFFSET 2.494507 5.926697 1.738678
											}
										}
									}
								}
								JOINT newVegas:LeftHandIndex1
								{
									OFFSET 18.578728 -0.527832 5.208049
									CHANNELS 3 Xrotation Yrotation Zrotation
									JOINT newVegas:LeftHandIndex2
									{
										OFFSET 3.192009 0.000000 0.000000
										CHANNELS 3 Xrotation Yrotation Zrotation
										JOINT newVegas:LeftHandIndex3
										{
											OFFSET 3.835129 0.000000 0.000000
											CHANNELS 3 Xrotation Yrotation Zrotation
											End Site
											{
												OFFSET -0.034599 3.816971 0.371180
											}
										}
									}
								}
								JOINT newVegas:LeftHandMiddle1
								{
									OFFSET 18.476105 0.000000 0.000000
									CHANNELS 3 Xrotation Yrotation Zrotation
									JOINT newVegas:LeftHandMiddle2
									{
										OFFSET 3.324875 0.000000 0.000000
										CHANNELS 3 Xrotation Yrotation Zrotation
										JOINT newVegas:LeftHandMiddle3
										{
											OFFSET 4.596550 0.000000 0.000000
											CHANNELS 3 Xrotation Yrotation Zrotation
											End Site
											{
												OFFSET 0.057701 4.578827 0.399218
											}
										}
									}
								}
								JOINT newVegas:LeftHandRing1
								{
									OFFSET 17.732719 0.121887 -4.201567
									CHANNELS 3 Xrotation Yrotation Zrotation
									JOINT newVegas:LeftHandRing2
									{
										OFFSET 2.733170 0.000000 0.000000
										CHANNELS 3 Xrotation Yrotation Zrotation
										JOINT newVegas:LeftHandRing3
										{
											OFFSET 3.178268 0.000000 0.000000
											CHANNELS 3 Xrotation Yrotation Zrotation
											End Site
											{
												OFFSET 0.119102 3.170624 0.185394
											}
										}
									}
								}
								JOINT newVegas:LeftHandPinky1
								{
									OFFSET 15.989624 -0.606689 -7.535461
									CHANNELS 3 Xrotation Yrotation Zrotation
									JOINT newVegas:LeftHandPinky2
									{
										OFFSET 2.538986 0.000000 0.000000
										CHANNELS 3 Xrotation Yrotation Zrotation
										JOINT newVegas:LeftHandPinky3
										{
											OFFSET 2.593102 0.000000 0.000000
											CHANNELS 3 Xrotation Yrotation Zrotation
											End Site
											{
												OFFSET -0.150902 2.584198 0.152708
											}
										}
									}
								}
							}
							JOINT newVegas:Left_Sleeve
							{
								OFFSET 0.267448 -0.649796 0.577675
								CHANNELS 3 Xrotation Yrotation Zrotation
								End Site
								{
									OFFSET 0.000000 15.991241 0.000000
								}
							}
							JOINT newVegas:Left_CapeC
							{
								OFFSET 15.715958 -8.608795 -6.935905
								CHANNELS 3 Xrotation Yrotation Zrotation
								JOINT newVegas:Left_CapeC1
								{
									OFFSET 0.000000 -8.688499 0.000000
									CHANNELS 3 Xrotation Yrotation Zrotation
									End Site
									{
										OFFSET 0.000000 8.688499 0.000000
									}
								}
							}
						}
						JOINT newVegas:Left_CapeB
						{
							OFFSET 26.118385 -8.608795 -7.079235
							CHANNELS 3 Xrotation Yrotation Zrotation
							JOINT newVegas:Left_CapeB1
							{
								OFFSET 0.000000 -8.688499 0.000000
								CHANNELS 3 Xrotation Yrotation Zrotation
								End Site
								{
									OFFSET 0.000000 8.688499 0.000000
								}
							}
						}
						JOINT newVegas:Left_CapeA
						{
							OFFSET 5.115639 -8.608795 -10.395809
							CHANNELS 3 Xrotation Yrotation Zrotation
							JOINT newVegas:Left_CapeA1
							{
								OFFSET 0.000000 -8.688499 0.000000
								CHANNELS 3 Xrotation Yrotation Zrotation
								End Site
								{
									OFFSET 0.000000 8.688499 0.000000
								}
							}
						}
					}
				}
				JOINT newVegas:RightShoulder
				{
					OFFSET -15.263000 10.923401 -0.547700
					CHANNELS 3 Xrotation Yrotation Zrotation
					JOINT newVegas:RightArm
					{
						OFFSET -25.438599 -2.830597 -13.032500
						CHANNELS 3 Xrotation Yrotation Zrotation
						JOINT newVegas:RightForeArm
						{
							OFFSET -29.960503 0.000000 0.000000
							CHANNELS 3 Xrotation Yrotation Zrotation
							JOINT newVegas:RightHand
							{
								OFFSET -27.849251 0.000000 0.000000
								CHANNELS 3 Xrotation Yrotation Zrotation
								JOINT newVegas:RightHandThumb1
								{
									OFFSET -4.487587 -3.305161 6.305391
									CHANNELS 3 Xrotation Yrotation Zrotation
									JOINT newVegas:RightHandThumb2
									{
										OFFSET -5.480453 -3.164139 3.164143
										CHANNELS 3 Xrotation Yrotation Zrotation
										JOINT newVegas:RightHandThumb3
										{
											OFFSET -5.159721 -2.978973 2.978967
											CHANNELS 3 Xrotation Yrotation Zrotation
											End Site
											{
												OFFSET -2.494507 5.926697 1.738678
											}
										}
									}
								}
								JOINT newVegas:RightHandIndex1
								{
									OFFSET -18.578728 -0.527832 5.208049
									CHANNELS 3 Xrotation Yrotation Zrotation
									JOINT newVegas:RightHandIndex2
									{
										OFFSET -3.192009 0.000000 0.000000
										CHANNELS 3 Xrotation Yrotation Zrotation
										JOINT newVegas:RightHandIndex3
										{
											OFFSET -3.835129 0.000000 0.000000
											CHANNELS 3 Xrotation Yrotation Zrotation
											End Site
											{
												OFFSET 0.034599 3.816971 0.371180
											}
										}
									}
								}
								JOINT newVegas:RightHandMiddle1
								{
									OFFSET -18.476105 0.000000 0.000000
									CHANNELS 3 Xrotation Yrotation Zrotation
									JOINT newVegas:RightHandMiddle2
									{
										OFFSET -3.324875 0.000000 0.000000
										CHANNELS 3 Xrotation Yrotation Zrotation
										JOINT newVegas:RightHandMiddle3
										{
											OFFSET -4.596550 0.000000 0.000000
											CHANNELS 3 Xrotation Yrotation Zrotation
											End Site
											{
												OFFSET -0.057701 4.578827 0.399218
											}
										}
									}
								}
								JOINT newVegas:RightHandRing1
								{
									OFFSET -17.732719 0.121887 -4.201567
									CHANNELS 3 Xrotation Yrotation Zrotation
									JOINT newVegas:RightHandRing2
									{
										OFFSET -2.733170 0.000000 0.000000
										CHANNELS 3 Xrotation Yrotation Zrotation
										JOINT newVegas:RightHandRing3
										{
											OFFSET -3.178268 0.000000 0.000000
											CHANNELS 3 Xrotation Yrotation Zrotation
											End Site
											{
												OFFSET -0.119102 3.170624 0.185394
											}
										}
									}
								}
								JOINT newVegas:RightHandPinky1
								{
									OFFSET -15.989624 -0.606689 -7.535461
									CHANNELS 3 Xrotation Yrotation Zrotation
									JOINT newVegas:RightHandPinky2
									{
										OFFSET -2.538986 0.000000 0.000000
										CHANNELS 3 Xrotation Yrotation Zrotation
										JOINT newVegas:RightHandPinky3
										{
											OFFSET -2.593102 0.000000 0.000000
											CHANNELS 3 Xrotation Yrotation Zrotation
											End Site
											{
												OFFSET 0.150902 2.584198 0.152708
											}
										}
									}
								}
							}
							JOINT newVegas:Right_CapeC
							{
								OFFSET -15.715958 -8.608795 -6.935905
								CHANNELS 3 Xrotation Yrotation Zrotation
								JOINT newVegas:Right_CapeC1
								{
									OFFSET 0.000000 -8.688499 0.000000
									CHANNELS 3 Xrotation Yrotation Zrotation
									End Site
									{
										OFFSET 0.000000 8.688499 0.000000
									}
								}
							}
							JOINT newVegas:Right_Sleeve
							{
								OFFSET -0.267448 -0.649994 0.577675
								CHANNELS 3 Xrotation Yrotation Zrotation
								End Site
								{
									OFFSET 0.000000 15.991302 0.000000
								}
							}
						}
						JOINT newVegas:Right_CapeA
						{
							OFFSET -5.115540 -8.608795 -10.395824
							CHANNELS 3 Xrotation Yrotation Zrotation
							JOINT newVegas:Right_CapeA1
							{
								OFFSET 0.000000 -8.688499 0.000000
								CHANNELS 3 Xrotation Yrotation Zrotation
								End Site
								{
									OFFSET 0.000000 8.688499 0.000000
								}
							}
						}
						JOINT newVegas:Right_CapeB
						{
							OFFSET -26.118187 -8.608795 -7.079266
							CHANNELS 3 Xrotation Yrotation Zrotation
							JOINT newVegas:Right_CapeB1
							{
								OFFSET 0.000000 -8.688499 0.000000
								CHANNELS 3 Xrotation Yrotation Zrotation
								End Site
								{
									OFFSET 0.000000 8.688499 0.000000
								}
							}
						}
					}
				}
				JOINT newVegas:Left_Collar
				{
					OFFSET 18.625099 8.655502 8.828100
					CHANNELS 3 Xrotation Yrotation Zrotation
					JOINT newVegas:Left_Collar1
					{
						OFFSET 14.783401 10.540405 -1.259500
						CHANNELS 3 Xrotation Yrotation Zrotation
						End Site
						{
							OFFSET 0.000000 18.199875 0.000000
						}
					}
				}
				JOINT newVegas:Collar_Back
				{
					OFFSET 0.000000 15.630707 -20.132601
					CHANNELS 3 Xrotation Yrotation Zrotation
					End Site
					{
						OFFSET 0.000000 22.523010 0.000000
					}
				}
				JOINT newVegas:Left_Peck
				{
					OFFSET 17.239599 -5.132599 25.482599
					CHANNELS 3 Xrotation Yrotation Zrotation
					End Site
					{
						OFFSET 0.000000 22.523010 0.000000
					}
				}
				JOINT newVegas:Right_Peck
				{
					OFFSET -17.239599 -5.132202 25.482599
					CHANNELS 3 Xrotation Yrotation Zrotation
					End Site
					{
						OFFSET 0.000000 22.523010 0.000000
					}
				}
				JOINT newVegas:Right_Collar
				{
					OFFSET -18.625099 8.655792 8.828100
					CHANNELS 3 Xrotation Yrotation Zrotation
					JOINT newVegas:Right_Collar1
					{
						OFFSET -14.783401 10.539993 -1.259500
						CHANNELS 3 Xrotation Yrotation Zrotation
						End Site
						{
							OFFSET 0.000000 18.199631 0.000000
						}
					}
				}
			}
		}
		JOINT newVegas:Belly
		{
			OFFSET 0.000000 -6.540398 9.014299
			CHANNELS 3 Xrotation Yrotation Zrotation
			End Site
			{
				OFFSET 0.000000 11.566666 0.000000
			}
		}
	}
	JOINT newVegas:ElvisFacialAnim_Joint
	{
		OFFSET 1.000000 -95.330101 -8.825800
		CHANNELS 3 Xrotation Yrotation Zrotation
		End Site
		{
			OFFSET 0.000000 35.315800 0.000000
		}
	}
}
MOTION
Frames: 4
Frame Time: 0.033333
-0.370440 50.241501 6.447278 0.147658 -15.037529 3.520612 -0.000000 0.000001 0.000000 -109.611989 -16.520399 5.808238 109.553652 3.231509 -0.377633 2.574579 -4.068980 -16.367748 0.000000 0.000000 -0.000000 -0.000001 -0.000000 0.000001 -34.393411 11.217071 4.217264 125.897803 5.057426 -3.965180 -16.875442 -14.700131 -18.461325 0.000001 -0.000000 0.000001 -0.000000 -0.000000 -0.000000 2.529285 -0.473731 0.881121 0.734000 -6.366547 -3.988985 -1.088368 -6.756439 -3.254983 4.869194 2.639836 -1.482161 4.869207 2.639837 -1.482159 0.000000 -0.000000 -0.000000 4.869349 2.639823 -1.482157 4.869136 2.639750 -1.482130 0.000003 -0.000001 0.000001 0.000000 -0.000000 -0.000000 4.182822 5.288715 -13.413796 -53.136628 -31.717141 -51.598022 -0.000134 -84.329422 -0.000117 -56.405915 28.478120 40.431448 -14.557454 10.837950 12.229983 0.749531 -4.257840 13.305476 -0.000000 0.000003 -0.000003 -0.809538 2.578176 -31.496406 3.095904 5.163769 -61.866966 0.000000 -0.000001 -0.000001 -2.430843 1.729218 -41.460908 2.952353 5.084712 -60.259931 -0.000001 -0.000002 -0.000002 -6.054124 -0.166600 -49.857563 3.046264 5.137018 -61.313966 -0.000000 -0.000000 -0.000002 -8.298296 -6.522644 -38.520136 2.848767 5.024354 -59.084422 0.000000 -0.000005 -0.000001 -0.000001 0.000001 0.000000 -0.000001 0.000001 0.000000 -0.000001 0.000002 0.000001 -0.000002 -0.000002 0.000000 -0.000002 -0.000003 0.000000 -0.000002 -0.000002 0.000000 -0.000004 -0.000003 -0.000001 -14.487822 2.835270 -3.986670 75.866415 137.437995 -53.749528 -0.000012 32.835335 0.000012 -49.805931 -8.788205 -31.505624 8.377147 -4.904141 11.021983 21.620199 -18.183902 -18.379228 0.000000 0.000001 0.000001 0.558933 -4.406587 25.436663 1.653043 -3.560342 49.799094 -0.000000 -0.000000 -0.000001 10.969839 -12.875552 52.800839 6.387559 -4.324404 111.833672 0.000001 -0.000000 0.000001 3.705080 -7.151315 57.622467 5.328221 -4.608665 98.293416 0.000000 0.000001 -0.000001 0.474829 -5.173005 58.987699 3.194304 -4.421920 71.674161 0.000001 0.000002 -0.000000 0.000004 -0.000002 -0.000000 0.000001 -0.000003 -0.000002 0.000004 -0.000002 0.000000 0.000001 0.000000 -0.000000 0.000001 0.000000 -0.000000 0.000001 0.000000 -0.000000 0.000001 -0.000000 -0.000000 0.000000 0.000002 -0.000000 0.000000 0.000002 -0.000000 0.000000 0.000002 -0.000000 0.000000 0.000002 -0.000000 0.000000 0.000002 -0.000000 0.000000 0.000002 -0.000000 0.000000 0.000002 -0.000000 0.000000 0.000000 0.000000 -0.000000 0.000001 0.000000 
-0.372559 50.237015 6.451707 0.122315 -15.005232 3.521001 0.000000 -0.000002 -0.000000 -109.605179 -16.513079 5.770700 109.550319 3.238461 -0.377014 2.585425 -4.075063 -16.378396 -0.000000 0.000000 0.000000 -0.000000 0.000000 -0.000000 -34.320222 11.171997 4.172718 125.895495 5.052750 -3.968681 -16.920513 -14.696320 -18.488038 -0.000001 -0.000002 -0.000000 0.000000 0.000000 -0.000000 2.535969 -0.461982 0.863342 0.735550 -6.363434 -3.993206 -1.086937 -6.753487 -3.259065 4.874670 2.638399 -1.486027 4.874659 2.638399 -1.486023 -0.000000 0.000002 0.000000 4.874667 2.638405 -1.486028 4.874750 2.638391 -1.486030 0.000002 0.000002 0.000000 -0.000000 0.000002 -0.000000 4.194174 5.284887 -13.442624 -53.135989 -31.723910 -51.576343 0.000230 -84.311910 0.000228 -56.415870 28.606045 40.404466 -14.557454 10.837947 12.229985 0.749527 -4.257840 13.305474 0.000001 0.000000 -0.000004 -0.809536 2.578177 -31.496406 3.095903 5.163769 -61.866966 -0.000000 -0.000001 -0.000001 -2.430844 1.729218 -41.460908 2.952354 5.084712 -60.259925 0.000000 0.000000 -0.000002 -6.054126 -0.166598 -49.857560 3.046266 5.137016 -61.313966 -0.000001 -0.000002 -0.000001 -8.298291 -6.522646 -38.520132 2.848765 5.024354 -59.084422 -0.000002 0.000004 -0.000001 0.000002 -0.000001 -0.000003 0.000002 -0.000001 -0.000003 0.000002 -0.000001 -0.000003 0.000002 0.000001 0.000000 0.000002 0.000000 0.000000 0.000002 0.000001 0.000000 0.000000 0.000000 -0.000001 -14.492572 2.838140 -4.016243 75.848349 137.454251 -53.719072 -0.000000 32.775790 -0.000007 -49.932873 -8.790266 -31.540991 8.377148 -4.904144 11.021983 21.620202 -18.183900 -18.379225 0.000001 0.000000 0.000001 0.558933 -4.406587 25.436661 1.653042 -3.560341 49.799090 -0.000000 -0.000002 -0.000002 10.969839 -12.875549 52.800839 6.387557 -4.324403 111.833672 0.000002 0.000001 -0.000001 3.705081 -7.151315 57.622474 5.328222 -4.608664 98.293423 -0.000000 -0.000001 0.000002 0.474829 -5.173005 58.987693 3.194299 -4.421915 71.674161 -0.000000 -0.000000 0.000002 -0.000000 -0.000002 -0.000000 -0.000000 -0.000001 -0.000001 -0.000000 -0.000002 -0.000000 -0.000003 0.000000 -0.000000 -0.000003 0.000000 -0.000000 -0.000003 0.000000 -0.000000 -0.000003 -0.000000 -0.000000 -0.000000 -0.000003 0.000000 -0.000000 -0.000003 0.000000 -0.000000 -0.000003 0.000000 -0.000000 -0.000003 0.000000 -0.000000 -0.000003 0.000000 -0.000000 -0.000003 0.000000 -0.000000 -0.000003 0.000000 -0.000000 0.000001 -0.000000 0.000000 -0.000002 -0.000000 
-0.378578 50.231804 6.452888 0.102078 -14.998532 3.530259 -0.000000 -0.000000 0.000000 -109.585467 -16.520807 5.747590 109.552710 3.242531 -0.376659 2.583607 -4.068917 -16.408794 0.000000 -0.000000 0.000000 -0.000000 -0.000000 -0.000000 -34.278018 11.161366 4.152872 125.907871 5.039561 -3.969236 -16.953670 -14.690204 -18.499916 0.000001 -0.000000 0.000002 0.000000 -0.000000 0.000000 2.546930 -0.424598 0.832067 0.739847 -6.352669 -3.998944 -1.082951 -6.742947 -3.264283 4.878135 2.636175 -1.486495 4.878139 2.636167 -1.486494 -0.000000 0.000000 -0.000000 4.878134 2.636161 -1.486495 4.878129 2.636170 -1.486495 0.000000 0.000001 0.000000 -0.000000 0.000000 -0.000000 4.194127 5.289269 -13.443287 -53.149769 -31.712493 -51.579065 0.000248 -84.301022 0.000245 -56.401629 28.747095 40.368648 -14.557454 10.837950 12.229982 0.749526 -4.257842 13.305477 0.000000 0.000000 0.000001 -0.809537 2.578178 -31.496403 3.095902 5.163769 -61.866972 -0.000000 -0.000002 -0.000000 -2.430845 1.729219 -41.460908 2.952354 5.084708 -60.259931 -0.000001 0.000001 0.000001 -6.054123 -0.166597 -49.857560 3.046265 5.137011 -61.313966 0.000001 -0.000001 0.000001 -8.298295 -6.522641 -38.520132 2.848764 5.024353 -59.084422 -0.000002 0.000003 0.000001 -0.000001 0.000003 -0.000003 -0.000001 0.000003 -0.000003 -0.000001 0.000004 -0.000003 0.000000 0.000001 -0.000002 0.000000 -0.000000 -0.000003 0.000000 0.000001 -0.000002 -0.000001 0.000000 -0.000003 -14.495668 2.843262 -4.039408 75.844517 137.486066 -53.703073 -0.000007 32.732698 -0.000001 -50.047228 -8.786862 -31.581709 8.377151 -4.904141 11.021984 21.620201 -18.183898 -18.379225 0.000000 -0.000003 0.000001 0.558934 -4.406585 25.436658 1.653042 -3.560340 49.799097 -0.000000 -0.000001 0.000000 10.969841 -12.875546 52.800839 6.387559 -4.324404 111.833679 0.000002 -0.000001 0.000001 3.705082 -7.151314 57.622467 5.328219 -4.608659 98.293416 -0.000001 0.000001 0.000002 0.474831 -5.173006 58.987693 3.194301 -4.421917 71.674161 -0.000000 0.000003 0.000001 0.000002 -0.000003 -0.000000 0.000003 -0.000001 -0.000000 0.000002 -0.000003 0.000000 -0.000001 0.000000 -0.000000 -0.000001 0.000000 -0.000000 -0.000001 0.000000 -0.000000 -0.000001 -0.000000 -0.000000 -0.000000 0.000000 0.000000 -0.000000 0.000000 0.000000 -0.000000 0.000000 0.000000 -0.000000 0.000000 0.000000 -0.000000 0.000000 0.000000 -0.000000 0.000000 0.000000 -0.000000 0.000000 0.000000 -0.000000 0.000001 -0.000000 -0.000000 -0.000000 0.000000 
-0.388509 50.225067 6.450548 0.089515 -14.990862 3.527342 -0.000000 0.000001 0.000000 -109.583111 -16.549273 5.726276 109.552566 3.240595 -0.376435 2.593057 -4.068129 -16.441288 -0.000000 0.000000 -0.000000 -0.000000 0.000000 -0.000000 -34.257579 11.147625 4.159794 125.918567 5.032884 -3.959679 -16.974038 -14.696982 -18.512084 -0.000000 -0.000001 -0.000001 -0.000000 -0.000001 0.000000 2.558352 -0.404705 0.813908 0.744632 -6.346665 -4.005492 -1.078356 -6.737170 -3.270540 4.882647 2.637206 -1.486548 4.882646 2.637200 -1.486546 0.000000 -0.000001 -0.000000 4.882642 2.637204 -1.486548 4.882647 2.637196 -1.486544 0.000001 0.000001 -0.000000 0.000000 -0.000001 -0.000000 4.184904 5.295509 -13.420386 -53.146115 -31.708323 -51.564117 0.000007 -84.291399 0.000013 -56.409805 28.784978 40.327312 -14.557452 10.837948 12.229984 0.749530 -4.257841 13.305481 -0.000003 0.000000 -0.000004 -0.809536 2.578177 -31.496406 3.095903 5.163770 -61.866966 0.000001 -0.000000 0.000001 -2.430843 1.729218 -41.460911 2.952354 5.084713 -60.259931 -0.000001 0.000002 -0.000002 -6.054123 -0.166598 -49.857553 3.046262 5.137016 -61.313973 0.000002 0.000001 0.000001 -8.298296 -6.522644 -38.520136 2.848764 5.024349 -59.084422 0.000001 -0.000002 -0.000001 -0.000001 -0.000002 0.000002 -0.000001 -0.000002 0.000002 -0.000001 -0.000001 0.000003 0.000003 0.000000 -0.000000 0.000003 -0.000001 -0.000000 0.000003 0.000000 -0.000000 0.000001 -0.000001 -0.000001 -14.495366 2.843790 -4.038417 75.846293 137.522430 -53.692418 -0.000013 32.709974 0.000009 -50.059460 -8.777911 -31.617782 8.377150 -4.904142 11.021985 21.620204 -18.183902 -18.379223 0.000002 0.000001 0.000001 0.558932 -4.406586 25.436663 1.653041 -3.560342 49.799094 -0.000000 0.000000 0.000001 10.969840 -12.875549 52.800839 6.387555 -4.324403 111.833665 -0.000000 0.000001 -0.000002 3.705080 -7.151313 57.622474 5.328222 -4.608662 98.293416 0.000000 0.000001 0.000001 0.474828 -5.173003 58.987699 3.194301 -4.421914 71.674168 -0.000000 0.000003 0.000005 -0.000002 0.000000 -0.000002 -0.000001 -0.000000 -0.000002 -0.000002 -0.000000 -0.000001 0.000002 0.000001 0.000000 0.000002 0.000001 0.000000 0.000002 0.000001 0.000000 0.000002 0.000001 0.000000 0.000000 -0.000002 -0.000000 0.000000 -0.000002 -0.000000 0.000000 -0.000002 -0.000000 0.000000 -0.000002 -0.000000 0.000000 -0.000002 -0.000000 0.000000 -0.000002 -0.000000 0.000000 -0.000002 -0.000000 0.000000 -0.000001 0.000000 -0.000000 0.000001 0.000000 
